<svg width="576" height="559" viewBox="0 0 576 559" fill="none" xmlns="http://www.w3.org/2000/svg">
<path d="M574 524.667L474.333 246C467.333 227.667 451.667 216.333 433.667 216.333C415.667 216.333 400.333 227.667 392.667 246.667L293.333 524.667C288.667 537.667 295.333 552 308.333 556.667C321.333 561.333 335.667 554.667 340.333 541.667L361 484H506L526.667 541.667C530.333 552 540 558.333 550.333 558.333C553 558.333 556 558 558.667 557C571.667 552.333 578.333 538 573.667 525L574 524.667ZM379.333 433.667L434 280.667L488.667 433.667H379.333ZM294.333 140.667C219 259.667 151 331.667 68.3334 379.667C64.3334 382 60 383 56 383C47.3334 383 39 378.667 34.3334 370.667C27.3334 358.667 31.3334 343.333 43.3334 336.667C113.333 296 170.667 237.667 235 141H25.3334C11.6667 141 0.333374 129.667 0.333374 116C0.333374 102.333 11.6667 91 25.3334 91H150.333V25C150.333 11.3333 161.667 0 175.333 0C189 0 200.333 11.3333 200.333 25V91H325.333C339 91 350.333 102.333 350.333 116C350.333 129.667 339 141 325.333 141H294L294.333 140.667ZM295.667 383C291.333 383 287 382 283 379.667C261.333 367 240.333 353 220.666 338.333C209.666 330 207.333 314.333 215.667 303.333C224 292.333 239.667 290 250.667 298.333C268.667 312 288.333 324.667 308.333 336.333C320.333 343.333 324.333 358.667 317.333 370.667C312.667 378.667 304.333 383 295.667 383Z" fill="white"/>
</svg>
